<?xml version="1.0" encoding="UTF-8"?>
<svg width="53px" height="45px" viewBox="0 0 53 45" version="1.1" xmlns="http://www.w3.org/2000/svg" xmlns:xlink="http://www.w3.org/1999/xlink">
    <!-- Generator: Sketch 48.2 (47327) - http://www.bohemiancoding.com/sketch -->
    <title>Fill 2</title>
    <desc>Created with Sketch.</desc>
    <defs></defs>
    <g id="Artboard" stroke="none" stroke-width="1" fill="none" fill-rule="evenodd" transform="translate(-106.000000, -331.000000)">
        <g id="Group-2" transform="translate(106.000000, 325.000000)" fill="#FFF4D6">
            <path d="M5.03122106,47.4082007 C6.38622106,48.5072007 14.9312211,42.2032007 21.3912211,33.7022007 C7.84522106,38.0392007 3.15522106,45.9622007 5.03122106,47.4082007 M30.7702211,31.6782007 C24.9342211,39.4282007 17.5362211,48.7382007 8.88722106,50.5892007 C6.90722106,50.9932007 4.92722106,50.9932007 2.94722106,49.3742007 C0.863221064,47.6392007 -1.22077894,45.6162007 0.863221064,42.2032007 C3.98922106,36.9982007 12.8462211,33.5292007 23.1632211,31.2732007 C24.2052211,29.9432007 25.2472211,28.4972007 26.3932211,27.1092007 C23.1632211,28.9602007 19.2032211,30.4632007 15.0352211,30.2902007 C7.53222106,29.9432007 7.32422106,25.7212007 9.72022106,21.9042007 C12.0132211,18.2032007 17.1192211,12.4782007 23.8922211,7.27320066 C24.7262211,6.63720066 25.7682211,6.69520066 26.4972211,7.27320066 C28.9992211,9.12420066 28.3732211,11.5532007 24.5182211,14.9652007 C20.7662211,18.3192007 18.4742211,20.6902007 16.4942211,23.4082007 C14.4102211,26.2422007 14.6182211,28.2662007 17.0152211,28.3822007 C21.0792211,28.5552007 26.2892211,24.8542007 31.6042211,19.8232007 C36.0852211,15.5432007 40.5652211,10.3382007 44.2132211,7.38820066 C45.1502211,6.63720066 45.8802211,6.52120066 46.8182211,6.98420066 C48.2772211,8.02520066 49.1102211,10.5122007 46.4012211,13.4612007 C43.2752211,16.8152007 36.9182211,23.7552007 32.5412211,29.3652007 C40.6702211,26.9362007 46.8182211,23.6392007 50.9862211,20.4592007 C51.5072211,20.0542007 52.4452211,19.9962007 52.6532211,20.5742007 C52.8622211,21.0952007 52.5492211,22.4252007 50.7782211,23.9292007 C46.7142211,27.5142007 39.4192211,29.7122007 30.7702211,31.6782007" id="Fill-2"></path>
        </g>
    </g>
</svg>